<?xml version="1.0" encoding="utf-8"?>
<!-- Generator: Adobe Illustrator 16.0.3, SVG Export Plug-In . SVG Version: 6.00 Build 0)  -->
<!DOCTYPE svg PUBLIC "-//W3C//DTD SVG 1.1//EN" "http://www.w3.org/Graphics/SVG/1.1/DTD/svg11.dtd" [
	<!ENTITY ns_flows "http://ns.adobe.com/Flows/1.0/">
	<!ENTITY ns_extend "http://ns.adobe.com/Extensibility/1.0/">
	<!ENTITY ns_ai "http://ns.adobe.com/AdobeIllustrator/10.0/">
	<!ENTITY ns_graphs "http://ns.adobe.com/Graphs/1.0/">
]>
<svg version="1.1" id="Ebene_1" xmlns:x="&ns_extend;" xmlns:i="&ns_ai;" xmlns:graph="&ns_graphs;"
	 xmlns="http://www.w3.org/2000/svg" xmlns:xlink="http://www.w3.org/1999/xlink" xmlns:a="http://ns.adobe.com/AdobeSVGViewerExtensions/3.0/"
	 x="0px" y="0px" width="283.46px" height="283.46px" viewBox="0 0 283.46 283.46" enable-background="new 0 0 283.46 283.46"
	 xml:space="preserve">
<g>
	<polygon fill-rule="evenodd" clip-rule="evenodd" fill="#0080C8" points="141.92,283.648 149.17,283.529 156.302,282.935 
		163.432,282.103 170.326,280.795 177.22,279.251 183.993,277.349 190.53,275.09 196.949,272.476 203.248,269.741 209.309,266.533 
		215.253,263.087 220.958,259.401 226.543,255.479 231.892,251.32 237.121,246.804 241.993,242.169 246.749,237.176 
		251.146,232.066 255.425,226.717 259.347,221.132 263.03,215.427 266.477,209.482 269.567,203.303 272.421,197.004 
		274.916,190.586 277.175,184.048 279.077,177.394 280.74,170.498 281.929,163.488 282.88,156.476 283.355,149.225 283.592,141.975 
		283.355,134.724 282.88,127.592 281.929,120.462 280.74,113.45 279.077,106.674 277.175,99.9 274.916,93.364 272.421,86.946 
		269.567,80.646 266.477,74.585 263.03,68.643 259.347,62.818 255.425,57.352 251.146,51.884 246.749,46.774 241.993,41.9 
		237.121,37.146 231.892,32.749 226.543,28.47 220.958,24.548 215.253,20.863 209.309,17.417 203.248,14.326 196.949,11.474 
		190.53,8.978 183.993,6.72 177.22,4.818 170.326,3.154 163.432,1.965 156.302,1.015 149.17,0.421 141.92,0.302 134.55,0.421 
		127.418,1.015 120.408,1.965 113.395,3.154 106.501,4.818 99.846,6.72 93.189,8.978 86.771,11.474 80.591,14.326 74.411,17.417 
		68.468,20.863 62.763,24.548 57.177,28.47 51.829,32.749 46.718,37.146 41.727,41.9 37.091,46.774 32.575,51.884 28.415,57.352 
		24.374,62.818 20.689,68.643 17.361,74.585 14.152,80.646 11.3,86.946 8.804,93.364 6.546,99.9 4.644,106.674 3.099,113.45 
		1.791,120.462 0.959,127.592 0.365,134.724 0.127,141.975 0.365,149.225 0.959,156.476 1.791,163.488 3.099,170.498 4.644,177.394 
		6.546,184.048 8.804,190.586 11.3,197.004 14.152,203.303 17.361,209.482 20.689,215.427 24.374,221.132 28.415,226.717 
		32.575,232.066 37.091,237.176 41.727,242.169 46.718,246.804 51.829,251.32 57.177,255.479 62.763,259.401 68.468,263.087 
		74.411,266.533 80.591,269.741 86.771,272.476 93.189,275.09 99.846,277.349 106.501,279.251 113.395,280.795 120.408,282.103 
		127.418,282.935 134.55,283.529 141.92,283.648 	"/>
	<polygon fill-rule="evenodd" clip-rule="evenodd" fill="#FFFFFF" points="48.382,50.458 111.968,50.458 111.968,147.917 
		111.968,154.334 111.968,156.476 111.968,158.615 111.968,160.754 112.088,162.773 112.088,164.913 112.206,166.814 
		112.325,168.598 112.444,170.381 112.563,172.045 112.563,172.758 112.682,173.471 112.8,174.184 112.919,174.896 113.038,175.491 
		113.157,175.967 113.276,176.442 113.395,176.918 113.87,178.345 114.345,179.77 114.821,181.077 115.415,182.267 116.01,183.574 
		116.604,184.762 117.198,185.831 117.911,187.021 118.505,187.972 119.219,189.041 119.932,189.992 120.764,190.943 
		121.596,191.774 122.308,192.606 123.259,193.438 124.091,194.15 125.042,194.865 125.993,195.458 126.944,196.053 
		128.015,196.647 129.083,197.123 130.152,197.599 131.223,198.072 132.413,198.431 133.599,198.668 134.908,199.023 
		136.214,199.263 137.522,199.38 138.829,199.499 140.257,199.619 141.682,199.619 143.227,199.619 144.416,199.499 145.723,199.38 
		147.03,199.263 148.219,199.023 149.406,198.787 150.597,198.431 151.665,198.072 152.854,197.717 153.924,197.24 154.994,196.766 
		156.063,196.172 157.133,195.577 158.083,194.982 159.153,194.389 160.104,193.676 160.937,192.963 161.887,192.131 
		162.719,191.299 163.551,190.586 164.383,189.635 165.215,188.804 165.929,187.853 166.641,186.901 167.354,185.95 
		168.067,184.999 168.661,183.93 169.256,182.979 169.851,181.908 170.326,180.84 170.8,179.77 171.275,178.701 171.751,177.512 
		171.871,177.273 171.99,176.918 171.99,176.442 172.107,176.086 172.227,175.61 172.346,175.135 172.346,174.54 172.466,173.947 
		172.583,172.64 172.702,171.213 172.821,169.667 172.939,167.886 173.059,165.983 173.178,163.962 173.178,161.586 
		173.297,159.208 173.297,156.713 173.297,153.979 173.415,151.008 173.415,147.917 173.297,50.458 235.1,50.458 235.1,156.236 
		235.1,158.971 234.982,161.586 234.863,164.2 234.744,166.814 234.625,169.43 234.507,171.926 234.269,174.54 233.912,177.037 
		233.675,179.413 233.317,181.908 232.961,184.287 232.604,186.664 232.129,189.041 231.653,191.299 231.178,193.558 
		230.585,195.816 229.99,197.955 229.395,200.095 228.802,202.233 228.088,204.253 227.256,206.274 226.543,208.295 
		225.712,210.197 224.88,212.098 224.048,213.881 223.097,215.663 222.146,217.446 221.194,219.11 220.126,220.656 219.056,222.319 
		217.985,223.746 216.797,225.291 215.608,226.717 214.302,228.144 212.875,229.569 211.448,231.115 209.784,232.542 
		208.121,234.086 206.338,235.513 204.436,237.057 202.416,238.603 200.396,240.028 198.257,241.574 195.998,243.001 
		193.739,244.426 191.362,245.853 188.985,247.279 186.608,248.586 183.993,249.894 181.379,251.082 178.764,252.27 176.149,253.46 
		173.415,254.528 170.683,255.479 167.829,256.431 164.978,257.263 162.124,257.975 159.272,258.689 156.302,259.282 
		153.448,259.758 150.478,260.233 147.506,260.472 144.535,260.59 141.563,260.709 138.591,260.59 135.501,260.472 132.53,260.114 
		129.559,259.639 126.586,259.045 123.498,258.45 120.525,257.619 117.555,256.787 114.703,255.836 111.73,254.767 108.878,253.696 
		106.025,252.509 103.173,251.201 100.44,249.894 97.825,248.467 95.091,247.04 92.596,245.615 89.981,244.188 87.604,242.643 
		85.226,241.099 82.968,239.553 80.71,237.889 78.571,236.345 76.55,234.799 74.648,233.254 72.866,231.708 71.083,230.164 
		69.538,228.618 67.993,227.073 66.685,225.646 65.497,224.34 64.308,222.914 63.239,221.488 62.169,220.062 61.099,218.397 
		60.148,216.852 59.316,215.308 58.365,213.644 57.534,211.979 56.702,210.197 55.988,208.414 55.276,206.631 54.563,204.849 
		53.968,202.946 53.374,200.926 52.78,199.023 52.304,197.004 51.829,194.982 51.354,192.844 50.997,190.704 50.641,188.564 
		50.283,186.307 49.927,184.048 49.689,181.791 49.452,179.413 49.214,177.037 48.976,174.54 48.857,172.045 48.739,169.549 
		48.62,166.935 48.501,164.32 48.501,161.705 48.382,158.971 48.382,50.458 	"/>
</g>
<g>
</g>
<g>
</g>
<g>
</g>
<g>
</g>
<g>
</g>
<g>
</g>
</svg>
